<svg xmlns="http://www.w3.org/2000/svg" viewBox="0 0 64 64">
  <defs>
    <linearGradient id="head" x1="0" y1="0" x2="0" y2="1">
      <stop offset="0" stop-color="#fde68a"/>
      <stop offset="1" stop-color="#f59e0b"/>
    </linearGradient>
    <radialGradient id="face" cx="0.5" cy="0.42" r="0.65">
      <stop offset="0" stop-color="#1a2436"/>
      <stop offset="1" stop-color="#0b1220"/>
    </radialGradient>
  </defs>
  <circle cx="32" cy="32" r="31" fill="#1e293b"/>
  <circle cx="32" cy="32" r="27.5" fill="url(#face)" stroke="#334155" stroke-width="1.5"/>
  <g stroke="#475569" stroke-width="2" stroke-linecap="round">
    <line x1="32" y1="7.5" x2="32" y2="12.5"/>
    <line x1="32" y1="51.5" x2="32" y2="56.5"/>
    <line x1="7.5" y1="32" x2="12.5" y2="32"/>
    <line x1="51.5" y1="32" x2="56.5" y2="32"/>
    <line x1="14.7" y1="14.7" x2="18.2" y2="18.2"/>
    <line x1="45.8" y1="45.8" x2="49.3" y2="49.3"/>
    <line x1="14.7" y1="49.3" x2="18.2" y2="45.8"/>
    <line x1="45.8" y1="18.2" x2="49.3" y2="14.7"/>
  </g>
  <g transform="rotate(45 32 32)">
    <polygon points="26,32 38,32 32,52" fill="#334155" stroke="#0f172a" stroke-width="1"/>
    <polygon points="32,11 26,32 38,32" fill="url(#head)" stroke="#0f172a" stroke-width="1"/>
  </g>
  <circle cx="32" cy="32" r="6" fill="#1e293b" stroke="#64748b" stroke-width="1.5"/>
  <circle cx="32" cy="32" r="2.5" fill="#fbbf24"/>
</svg>
